<?xml version="1.0" encoding="UTF-8" standalone="no"?>
<!-- Created with Inkscape (http://www.inkscape.org/) -->

<svg
   version="1.1"
   id="svg1"
   width="564"
   height="564"
   viewBox="0 0 564 564"
   sodipodi:docname="oppositCat.svg"
   inkscape:version="1.3 (1:1.3+202307231459+0e150ed6c4)"
   xmlns:inkscape="http://www.inkscape.org/namespaces/inkscape"
   xmlns:sodipodi="http://sodipodi.sourceforge.net/DTD/sodipodi-0.dtd"
   xmlns="http://www.w3.org/2000/svg"
   xmlns:svg="http://www.w3.org/2000/svg"
   xmlns:rdf="http://www.w3.org/1999/02/22-rdf-syntax-ns#"
   xmlns:cc="http://creativecommons.org/ns#"
   xmlns:dc="http://purl.org/dc/elements/1.1/">
  <defs
     id="defs1" />
  <sodipodi:namedview
     id="namedview1"
     pagecolor="#ffffff"
     bordercolor="#000000"
     borderopacity="0"
     inkscape:showpageshadow="false"
     inkscape:pageopacity="0.0"
     inkscape:pagecheckerboard="true"
     inkscape:deskcolor="#d1d1d1"
     showgrid="false"
     showborder="false"
     borderlayer="true"
     shape-rendering="auto"
     labelstyle="default"
     inkscape:zoom="1.1170213"
     inkscape:cx="329.89523"
     inkscape:cy="275.73333"
     inkscape:window-width="1600"
     inkscape:window-height="827"
     inkscape:window-x="0"
     inkscape:window-y="0"
     inkscape:window-maximized="1"
     inkscape:current-layer="g1" />
  <g
     inkscape:groupmode="layer"
     inkscape:label="Image"
     id="g1">
    <ellipse
       style="fill:#ffffff;stroke-width:0.988667"
       id="path3"
       cx="285.72711"
       cy="264.52814"
       rx="251.38339"
       ry="246.68941" />
    <path
       style="fill:#000000"
       d="m 165.30812,462.47144 c -1.29393,-3.09681 -1.28406,-3.92681 0.0856,-7.20499 2.33962,-5.5995 8.64454,-13.45106 19.31208,-24.04946 8.65436,-8.59827 9.43299,-9.66707 7.75958,-10.65142 -1.02303,-0.60177 -4.03669,-2.78163 -6.69703,-4.84412 l -4.83698,-3.75 -7.77943,5.81256 c -6.40022,4.78206 -15.74134,11.57015 -30.28995,22.01135 -2.43184,1.74527 -5.53253,0.1328 -6.40138,-3.32895 -1.19699,-4.76918 2.74004,-8.56096 25.91191,-24.95598 13.62913,-9.64315 13.0872,-9.12652 11.53517,-10.99661 -1.08447,-1.30671 -4.89026,-1.55217 -24.90762,-1.60642 -31.16886,-0.0845 -45.91039,-1.09234 -49.397611,-3.37725 -5.427472,-3.55622 -9.677717,-16.21311 -12.322696,-36.696 -2.088864,-16.1763 -3.234597,-90.45109 -1.461301,-94.73221 0.641675,-1.54914 3.411884,-5.02474 6.15602,-7.72356 l 4.989339,-4.90694 9.704349,0.0711 c 5.33739,0.0391 13.46424,0.66401 18.05965,1.38863 9.64831,1.52139 10.1044,1.26164 10.12939,-5.76878 0.0175,-4.9179 -1.28103,-4.81084 -3.40855,0.28104 -1.49148,3.5696 -5.06009,5.44403 -6.88681,3.61731 -0.61013,-0.61013 -1.42941,-6.61733 -1.82062,-13.34933 -0.3912,-6.732 -1.19419,-18.54 -1.78442,-26.24 -1.15867,-15.11581 -0.70847,-27.15617 1.50987,-40.38099 0.77321,-4.60955 1.40584,-15.08997 1.40584,-23.28984 0,-17.57071 0.6629,-19.49207 9.91836,-28.74753 4.97228,-4.97228 7.00453,-6.22475 13.73984,-8.46781 7.35189,-2.44841 8.49645,-3.2331 16.37312,-11.225167 11.50154,-11.670034 31.48423,-28.285833 36.89828,-30.681276 3.8911,-1.721611 5.9578,-1.894922 17,-1.425609 8.4805,0.360435 14.97919,1.229887 19.97386,2.672275 17.48578,5.049644 19.95222,5.297295 51.00027,5.120858 21.32689,-0.121194 31.30227,-0.566463 36.31537,-1.621002 4.30496,-0.905575 12.65374,-1.45391 22.13681,-1.45391 14.08555,0 15.89578,0.217524 24.18462,2.906109 4.92771,1.59836 13.00947,4.832479 17.95947,7.186931 7.30258,3.47345 10.27527,5.612932 15.76172,11.343891 7.84411,8.19371 14.04622,19.26263 15.63058,27.89594 0.58874,3.20809 2.61912,9.28309 4.51196,13.5 3.53232,7.86943 7.72091,20.19491 9.57208,28.16713 0.57469,2.475 1.30258,11.475 1.61751,20 0.51768,14.01295 0.17692,19.38804 -2.22219,35.05284 l -0.54413,3.55284 17.8682,-0.42174 17.8682,-0.42175 3.10797,2.61518 c 1.70938,1.43835 3.85214,4.47507 4.76169,6.74827 2.43739,6.09163 4.37026,27.37657 5.08946,56.04544 0.34948,13.93091 1.2722,32.97892 2.05049,42.32892 0.77829,9.35 1.41764,21.61196 1.42077,27.2488 0.005,9.75274 -0.16453,10.58279 -3.51107,17.14944 -1.93422,3.79535 -4.22102,7.17089 -5.08179,7.5012 -0.86076,0.33031 -4.00335,0.60056 -6.98353,0.60056 h -5.4185 l -2.74971,4.99392 c -1.51234,2.74666 -3.48544,5.23555 -4.38467,5.53087 -0.89922,0.29533 -4.49922,-0.33719 -8,-1.40559 -3.50077,-1.06841 -11.87134,-3.40344 -18.60126,-5.18897 l -12.23623,-3.24641 -5.26377,4.90809 c -2.89508,2.69945 -6.75943,6.03309 -8.58744,7.40809 l -3.32366,2.5 9.35486,5.70019 c 19.2321,11.71868 21.8193,14.42916 19.89702,20.84513 -0.65166,2.17508 -1.58103,3.95468 -2.06525,3.95468 -0.48422,0 -1.18324,1.37882 -1.55338,3.06405 -0.40956,1.8647 -1.62155,3.49625 -3.09635,4.16821 -2.18494,0.99553 -2.88904,0.6431 -7.15648,-3.58207 -2.6032,-2.57743 -11.20312,-8.72251 -19.11092,-13.65572 l -14.37782,-8.96948 -9.86677,4.93947 c -8.35964,4.18499 -23.44707,9.55919 -42.78584,15.24049 -2.42454,0.71228 -4.89954,2.19505 -5.5,3.29505 -0.60046,1.1 -1.54175,2.33061 -2.09175,2.73469 -1.86279,1.36857 -13.4777,0.77478 -22.26059,-1.13803 -16.13056,-3.51304 -43.367,-6.08462 -64.52883,-6.09259 -5.93417,-0.002 -15.07692,-0.48216 -20.31721,-1.06648 l -9.5278,-1.06242 -7.4773,6.69215 c -11.95241,10.69736 -18.70485,17.62999 -22.16398,22.75545 -1.77336,2.62762 -3.22429,5.14425 -3.22429,5.5925 0,1.57975 -4.16358,6.08473 -5.62361,6.08473 -0.81314,0 -2.13652,-1.575 -2.94084,-3.5 z m 158.13417,-49.97249 c 9.47514,-1.08288 16.62596,-2.62935 26,-5.62288 18.24075,-5.82504 23.43028,-7.87267 23.43028,-9.24487 0,-1.41893 9.87715,-11.65976 11.24569,-11.65976 0.52015,0 2.16733,0.72162 3.6604,1.6036 2.65711,1.56959 2.88006,1.49562 10.51537,-3.48876 4.5067,-2.94201 7.22596,-5.29033 6.43962,-5.56118 -0.74859,-0.25785 -4.28608,-1.17948 -7.86108,-2.04806 -13.60264,-3.30489 -18.56161,-5.50583 -19.80052,-8.78807 -1.04801,-2.77651 -0.87148,-3.34367 2.07759,-6.67476 6.94439,-7.84398 6.33536,-7.73222 19.90075,-3.65188 6.60465,1.98661 12.47796,3.32184 13.05182,2.96718 2.38781,-1.47575 -4.16637,-53.19508 -8.79631,-69.41199 -0.50737,-1.77715 8.81146,-11.94608 10.94742,-11.94608 0.7559,0 1.85023,0.57339 2.43185,1.2742 3.00342,3.6189 10.1874,52.5041 10.1874,69.32271 v 10.24418 l 2.75,0.57542 c 6.24078,1.30585 17.47055,2.54276 28.97436,3.1914 11.00218,0.62036 12.29009,0.518 12.88173,-1.02378 0.36155,-0.94218 -0.1001,-10.79655 -1.02588,-21.89859 -0.92578,-11.10205 -2.09212,-33.23554 -2.59186,-49.18554 -1.21411,-38.75023 -2.49167,-49.18305 -6.42223,-52.44513 -2.3487,-1.94925 -29.82325,-0.77164 -33.1708,1.42176 -1.27873,0.83785 -3.45541,1.52337 -4.83709,1.52337 -1.58325,0 -3.12433,0.93434 -4.16783,2.52692 -1.41304,2.15657 -1.49328,3.33565 -0.54748,8.04513 0.60952,3.03503 1.52175,6.25717 2.02718,7.16032 0.93276,1.66675 -1.44317,8.26763 -2.97586,8.26763 -0.40443,0 -1.03817,1.37882 -1.40831,3.06405 -1.34763,6.13574 -7.3166,6.12156 -9.66581,-0.0229 -1.34091,-3.50724 -6.86311,-30.65472 -12.31496,-60.5411 -2.50827,-13.75 -5.24057,-27.475 -6.07178,-30.5 -2.34518,-8.53468 -6.71594,-21.00181 -7.35646,-20.98355 -0.31731,0.009 -1.99227,3.72155 -3.72214,8.25 -1.72987,4.52845 -6.97701,17.58467 -11.66032,29.01382 -4.68331,11.42915 -8.83813,23.12915 -9.23292,26 -0.70077,5.09586 -6.24857,17.49561 -8.72125,19.49268 -0.74069,0.59822 -14.33155,1.20683 -33.74029,1.51092 -22.67206,0.35522 -39.00156,1.16406 -54,2.67475 -11.825,1.19105 -25.0838,2.25011 -29.464,2.35346 l -7.96401,0.18792 -7.64267,-20 c -8.41149,-22.01191 -24.89531,-60.5 -25.91116,-60.5 -0.73795,0 -7.52505,23.99818 -8.90874,31.5 -0.50723,2.75 -1.25053,9.94634 -1.65177,15.99187 -0.65284,9.83644 -1.08773,11.66709 -4.13718,17.41522 -2.16766,4.08599 -3.1357,7.00002 -2.66029,8.00813 0.41105,0.87163 1.04552,11.25978 1.40993,23.08478 0.70698,22.94133 3.08926,41.85595 5.79367,46 1.01314,1.55248 1.70374,4.96355 1.8221,9 0.10484,3.575 1.18033,9.65 2.38999,13.5 1.75602,5.58893 2.26646,10.00543 2.53217,21.90931 0.28243,12.65263 0.66993,15.7227 2.56013,20.28314 1.93948,4.67934 2.08227,5.91727 1.1049,9.57898 -1.82765,6.84732 -0.0497,7.5363 6.08612,2.35846 19.28653,-16.27534 26.84061,-17.96481 19.19486,-4.29293 -2.84325,5.08421 -5.14048,7.57479 -10.78614,11.69401 l -7.17346,5.23393 2.95277,2.357 c 4.43934,3.54362 11.36193,5.68207 13.33955,4.12071 0.86564,-0.68344 4.68959,-3.83011 8.49768,-6.99261 10.53035,-8.74513 13.46087,-7.36354 7.61555,3.59034 -1.65,3.09203 -3,5.78618 -3,5.98702 0,0.20083 8.8875,0.67391 19.75,1.05129 21.63101,0.7515 39.63736,2.17685 51.25,4.05685 4.125,0.66781 8.85,1.07279 10.5,0.89995 1.65,-0.17284 8.88137,-0.98641 16.06972,-1.80794 z m -46.30015,-21.70269 c -2.0795,-2.50565 -2.49646,-6.39163 -0.83386,-7.77147 0.86036,-0.71403 1.56429,-2.51171 1.56429,-3.99484 0,-4.24911 18.36488,-40.52375 24.04872,-47.50144 5.57337,-6.84208 10.9084,-10.89449 13.19002,-10.01895 0.84625,0.32474 2.26447,2.47401 3.15159,4.77615 0.88713,2.30215 4.94074,8.6511 9.00803,14.10877 4.0673,5.45767 9.70256,14.36889 12.5228,19.8027 2.82025,5.43382 5.6782,10.76112 6.351,11.83845 1.03948,1.66447 0.69774,2.94095 -2.27444,8.49571 -1.92375,3.59532 -4.17272,7.13709 -4.99772,7.8706 -1.13428,1.0085 -8.08297,1.47581 -28.5,1.91667 -14.85,0.32064 -28.15237,0.85989 -29.56082,1.19832 -1.58792,0.38156 -2.98207,0.10776 -3.66961,-0.72067 z m 47.98191,-18.69001 c 0.41332,-0.40577 -1.38668,-3.90284 -4,-7.77125 -8.33824,-12.34284 -14.73581,-21.27701 -15.26747,-21.32093 -0.57075,-0.0471 -14.98322,28.53302 -14.98534,29.71619 -0.002,0.95732 33.25931,0.35138 34.25281,-0.62401 z m -73.41744,-35.41281 c -2.89549,-2.68346 -8.49017,-10.83433 -15.73384,-22.92262 -5.07341,-8.46654 -8.93055,-11.82609 -9.96799,-8.68208 -1.16695,3.53648 -8.49471,16.45105 -11.35121,20.00558 -3.80834,4.73898 -6.72625,4.87675 -7.98679,0.37712 -1.2723,-4.54162 -0.12352,-9.02159 5.1285,-20 3.99236,-8.3453 5.95043,-11.11692 11.83339,-16.75 5.97445,-5.72068 7.58639,-6.75 10.57061,-6.75 2.75674,0 4.02615,0.66558 5.84723,3.06582 1.27933,1.6862 3.95505,4.9487 5.94605,7.25 10.83541,12.52417 18.88001,25.37926 18.88001,30.16983 0,1.40368 -1.35455,5.09051 -3.01012,8.19297 -4.97709,9.32686 -5.97327,9.91965 -10.15584,6.04338 z m 76.65155,-15.74986 c -2.00175,-3.87096 -1.35395,-7.49382 3.68734,-20.62164 5.8596,-15.25877 13.88435,-26.30867 24.90246,-34.29015 4.78122,-3.4635 10.08296,-4.03859 13.72354,-1.48863 5.20839,3.6481 14.84993,19.14041 17.73499,28.4971 l 1.7171,5.56881 -3.65732,6.89183 c -5.78919,10.9091 -7.27033,11.05719 -12.20728,1.22054 -4.50906,-8.98409 -10.86251,-18.1767 -13.97007,-20.21285 -1.29029,-0.84543 -3.90012,-1.53715 -5.79961,-1.53715 -2.86223,0 -3.82064,0.59385 -5.59693,3.46794 -2.63063,4.25645 -7.01981,15.28511 -7.01981,17.63862 0,2.29318 -6.7265,15.05576 -8.77189,16.64344 -2.35305,1.82648 -3.00503,1.58207 -4.74252,-1.77786 z m -164.48559,48.02128 c 0,-19.91659 -2.49138,-33.99878 -11.02126,-62.29639 -2.1226,-7.04164 -4.82546,-16.98422 -6.00637,-22.09463 -2.02881,-8.77972 -2.27722,-9.26678 -4.50852,-8.84024 -1.66251,0.31781 -3.11285,-0.3594 -4.90028,-2.28807 -2.00485,-2.16326 -2.8324,-2.49587 -3.9344,-1.5813 -1.06359,0.88271 -3.50454,0.78682 -10.26235,-0.40315 -4.87675,-0.85873 -12.40855,-1.84108 -16.73734,-2.183 l -7.870515,-0.62166 0.51727,32.40751 c 0.760603,47.65265 4.241455,72.11271 11.068505,77.77866 1.63942,1.36059 20.6931,2.7497 40.90526,2.98219 l 12.75,0.14666 z m 97,-139.9925 c 27.37453,-2.54787 51.88945,-3.96884 68.78138,-3.9868 11.75075,-0.0125 13.34916,-0.2158 13.86943,-1.76412 1.62408,-4.83323 10.39467,-26.55324 16.45495,-40.75 5.78709,-13.55678 7.11068,-17.76917 8.66783,-27.58581 1.65109,-10.40889 2.18766,-12.0092 5.28209,-15.75383 1.89438,-2.29242 5.1481,-4.95381 7.23051,-5.9142 3.29552,-1.51987 3.72092,-2.09762 3.28259,-4.45817 -0.35875,-1.932 0.20607,-3.5554 1.96382,-5.64436 1.35707,-1.61279 2.4674,-3.36868 2.4674,-3.90199 0,-1.48457 -7.16726,-6.12043 -12.62245,-8.16434 -4.18543,-1.56817 -9.51397,-1.92847 -37.55145,-2.53915 l -32.67389,-0.71166 -4.32611,2.47485 c -5.00645,2.86406 -8.86461,3.37225 -35.3261,4.65309 -25.62182,1.24019 -37.08056,4.07645 -55.77055,13.80425 l -13.22945,6.8857 0.29939,3.92781 c 0.17261,2.26461 5.73798,16.63109 13.14315,33.92781 7.06407,16.5 15.23526,36.42774 18.1582,44.28386 5.13033,13.78903 5.40251,14.2654 7.85685,13.75101 1.39832,-0.29306 12.21741,-1.43334 24.04241,-2.53395 z m -115.00916,-72.1409 c 3.89926,-7.30827 3.98945,-10.10786 0.31172,-9.67644 -3.6706,0.43058 -7.51341,7.91624 -8.02993,15.64204 l -0.37937,5.67438 2.54421,-3 c 1.39931,-1.65 3.89833,-5.53799 5.55337,-8.63998 z m 37.46257,-21.67978 c -0.14278,-0.17587 -2.04989,0.59358 -4.23803,1.70988 -4.3811,2.23507 -4.93473,3.51182 -5.7821,13.33448 l -0.54136,6.2754 5.41055,-10.5 c 2.97579,-5.775 5.29372,-10.64389 5.15094,-10.81976 z m -43.95341,-5.18024 c 0.33992,-0.55 0.14147,-1 -0.44098,-1 -0.58246,0 -1.05902,0.45 -1.05902,1 0,0.55 0.19844,1 0.44098,1 0.24254,0 0.7191,-0.45 1.05902,-1 z m 63,-36.916466 c 22.24638,-5.927051 23.05124,-6.195541 21.37855,-7.131626 -0.85264,-0.477161 -6.23662,-1.1678 -11.9644,-1.534753 -8.48794,-0.543784 -11.13622,-0.364169 -14.31803,0.971098 -4.13765,1.736387 -14.46898,9.524061 -14.54881,10.966782 -0.0725,1.309296 6.25057,0.245908 19.45269,-3.271501 z"
       id="path1" />
  </g>
  <metadata
     id="metadata1">
    <rdf:RDF>
      <cc:Work
         rdf:about="">
        <dc:creator>
          <cc:Agent>
            <dc:title>Rafael Vicente</dc:title>
          </cc:Agent>
        </dc:creator>
      </cc:Work>
    </rdf:RDF>
  </metadata>
</svg>
